<?xml version="1.0" encoding="utf-8"?>
<!-- Generator: Adobe Illustrator 13.0.0, SVG Export Plug-In . SVG Version: 6.00 Build 14948)  -->
<!DOCTYPE svg PUBLIC "-//W3C//DTD SVG 1.1//EN" "http://www.w3.org/Graphics/SVG/1.1/DTD/svg11.dtd">
<svg version="1.1" id="Layer_1" xmlns="http://www.w3.org/2000/svg" xmlns:xlink="http://www.w3.org/1999/xlink" x="0px" y="0px"
	 width="40px" height="40px" viewBox="0 0 40 40" enable-background="new 0 0 40 40" xml:space="preserve">
<g>
	<path fill="#333333" d="M35.001,38.501H5c-1.931,0-3.5-1.569-3.5-3.5V5c0-1.931,1.569-3.5,3.5-3.5h30.001
		c1.931,0,3.5,1.569,3.5,3.5v30.001C38.501,36.932,36.932,38.501,35.001,38.501L35.001,38.501z"/>
	<path fill="#DDDDDD" d="M35,0c2.762,0,5,2.239,5,5v30c0,2.762-2.238,5-5,5H5c-2.761,0-5-2.238-5-5V5c0-2.761,2.239-5,5-5H35 M35,3
		H5C3.897,3,3,3.897,3,5v30c0,1.103,0.897,2,2,2h30c1.103,0,2-0.897,2-2V5C37,3.897,36.103,3,35,3L35,3z"/>
</g>
<line fill="none" stroke="#DDDDDD" stroke-width="3" stroke-linecap="round" x1="7.5" y1="10" x2="32.5" y2="10"/>
<line fill="none" stroke="#DDDDDD" stroke-width="3" stroke-linecap="round" x1="7.5" y1="20" x2="32.5" y2="20"/>
<line fill="none" stroke="#DDDDDD" stroke-width="3" stroke-linecap="round" x1="7.5" y1="30" x2="32.5" y2="30"/>
</svg>
